<svg xmlns="http://www.w3.org/2000/svg" xmlns:xlink="http://www.w3.org/1999/xlink" width="57" height="57" viewBox="0 0 57 57">
    <defs>
        <path id="a" d="M0 0h90v90H0z"/>
    </defs>
    <g fill="none" fill-rule="evenodd" transform="translate(-21 -17)">
        <mask id="b" fill="#fff">
            <use xlink:href="#a"/>
        </mask>
        <path fill="#DB2D1E" fill-rule="nonzero" d="M42.85 17c.526 0 .95.424.95.95v7.6c0 .526-.424.95-.95.95a.948.948 0 0 1-.95-.95v-7.6c0-.526.424-.95.95-.95zm9.5 0c.526 0 .95.424.95.95v7.6c0 .526-.424.95-.95.95a.948.948 0 0 1-.95-.95v-7.6c0-.526.424-.95.95-.95zm-19 0c.526 0 .95.424.95.95v7.6c0 .526-.424.95-.95.95a.948.948 0 0 1-.95-.95v-7.6c0-.526.424-.95.95-.95zm-5.7 17.1h30.4c.526 0 .95.424.95.95s-.424.95-.95.95h-30.4a.948.948 0 0 1-.95-.95c0-.526.424-.95.95-.95zm39.9-1.9c-1.254 0-1.239 1.9 0 1.9h1.9a6.633 6.633 0 0 1 6.65 6.65 6.633 6.633 0 0 1-6.65 6.65h-1.9c-1.248 0-1.246 1.9 0 1.9h1.9c4.712 0 8.55-3.838 8.55-8.55 0-4.712-3.838-8.55-8.55-8.55h-1.9zm-45.6-3.8c-.524.008-.958.426-.95.95v22.8c0 8.911 5.316 16.549 12.95 19.95h-12a.948.948 0 0 0-.95.95c0 .526.424.95.95.95h41.8c.526 0 .95-.424.95-.95a.948.948 0 0 0-.95-.95h-12c7.634-3.401 12.95-11.039 12.95-19.95v-22.8c0-1.239-1.9-1.273-1.9 0v22.8c0 11.07-8.88 19.95-19.95 19.95-11.07 0-19.95-8.88-19.95-19.95v-22.8a.927.927 0 0 0-.95-.95z" mask="url(#b)"/>
    </g>
</svg>
