<svg xmlns="http://www.w3.org/2000/svg" xmlns:xlink="http://www.w3.org/1999/xlink" width="59" height="48" viewBox="0 0 59 48">
    <defs>
        <path id="a" d="M0 0h90v90H0z"/>
        <path id="b" d="M64.167 65c0 .552-.44 1-.984 1a.992.992 0 0 1-.983-1c0-.552.44-1 .983-1 .543 0 .984.448.984 1zm-2.95-25h3.933a.99.99 0 0 1 .983 1 .99.99 0 0 1-.983 1h-3.933a.99.99 0 0 1-.984-1c0-.554.439-1 .984-1zm-5.9-4c-1.617 0-2.95 1.356-2.95 3v28c0 1.644 1.333 3 2.95 3H71.05c1.617 0 2.95-1.356 2.95-3V39c0-1.644-1.333-3-2.95-3H55.317zm0 2H71.05c.562 0 .983.428.983 1v28c0 .572-.42 1-.983 1H55.317c-.563 0-.984-.428-.984-1V39c0-.572.421-1 .984-1zM42.533 55c0 .552-.44 1-.983 1a.992.992 0 0 1-.983-1c0-.552.44-1 .983-1 .543 0 .983.448.983 1zM17.95 22C16.333 22 15 23.356 15 25v32c0 1.644 1.333 3 2.95 3h18.683v4h-2.95a.99.99 0 0 0-.983 1c0 .554.439 1 .983 1h15.734a.99.99 0 0 0 .983-1 .99.99 0 0 0-.983-1h-2.95v-4h2.95c1.313 0 1.29-2 0-2H17.95c-.562 0-.983-.428-.983-1v-5h32.45a.99.99 0 0 0 .983-1 .99.99 0 0 0-.983-1h-32.45V25c0-.572.42-1 .983-1h47.2c.562 0 .983.428.983 1v8c0 1.33 1.967 1.314 1.967 0v-8c0-1.644-1.333-3-2.95-3h-47.2zM38.6 60h5.9v4h-5.9v-4z"/>
    </defs>
    <g fill="none" fill-rule="evenodd" transform="translate(-15 -22)">
        <use fill="#DB2D1E" fill-rule="nonzero" xlink:href="#b"/>
    </g>
</svg>
