<svg xmlns="http://www.w3.org/2000/svg" xmlns:xlink="http://www.w3.org/1999/xlink" width="59" height="59" viewBox="0 0 59 59">
    <defs>
        <path id="a" d="M0 0h90v90H0z"/>
        <path id="b" d="M58.847 45.5a2.885 2.885 0 0 0-2.87 2.87v1.5c-.751.219-1.473.512-2.161.89l-.599-.6a2.88 2.88 0 0 0-4.055 0 2.876 2.876 0 0 0 0 4.055l.598.603a10.572 10.572 0 0 0-.899 2.161H47.37a2.885 2.885 0 0 0-2.87 2.87 2.885 2.885 0 0 0 2.87 2.87h1.502c.218.751.51 1.472.89 2.16l-.601.6a2.88 2.88 0 0 0 0 4.055 2.876 2.876 0 0 0 4.055 0l.603-.599c.688.383 1.408.678 2.161.9v1.492a2.885 2.885 0 0 0 2.87 2.87 2.885 2.885 0 0 0 2.87-2.87v-1.502c.751-.218 1.472-.51 2.16-.89l.6.601a2.88 2.88 0 0 0 4.055 0 2.876 2.876 0 0 0 0-4.055l-.599-.603c.383-.689.678-1.408.9-2.162h1.492a2.885 2.885 0 0 0 2.87-2.87 2.885 2.885 0 0 0-2.87-2.869h-1.502a10.583 10.583 0 0 0-.89-2.161l.601-.599a2.88 2.88 0 0 0 0-4.055 2.876 2.876 0 0 0-4.055 0l-.603.598a10.572 10.572 0 0 0-2.162-.899V48.37a2.885 2.885 0 0 0-2.87-2.87zm0 1.913c.547 0 .956.409.956.956v1.913c0 .628.161.972.727 1.125a8.66 8.66 0 0 1 3.055 1.262.956.956 0 0 0 1.206-.118l1.038-1.039a.934.934 0 0 1 1.353 0 .934.934 0 0 1 0 1.353l-1.039 1.038a.953.953 0 0 0-.122 1.202 8.646 8.646 0 0 1 1.258 3.055c.153.577.658.732 1.133.732h1.913c.547 0 .956.41.956.957 0 .547-.41.956-.956.956h-1.913c-.754 0-1.01.303-1.125.727a8.66 8.66 0 0 1-1.263 3.055.956.956 0 0 0 .119 1.205l1.039 1.04a.934.934 0 0 1 0 1.352.934.934 0 0 1-1.353 0l-1.038-1.04a.953.953 0 0 0-1.202-.122 8.646 8.646 0 0 1-3.055 1.26c-.505.133-.733.65-.733 1.132v1.913c0 .547-.409.956-.956.956a.933.933 0 0 1-.956-.956v-1.913c0-.708-.264-1-.727-1.125a8.66 8.66 0 0 1-3.055-1.263.956.956 0 0 0-1.206.119l-1.038 1.039a.934.934 0 0 1-1.353 0 .934.934 0 0 1 0-1.353l1.039-1.039a.953.953 0 0 0 .122-1.2 8.646 8.646 0 0 1-1.258-3.056c-.096-.482-.502-.733-1.133-.733h-1.913a.933.933 0 0 1-.956-.956c0-.547.41-.957.956-.957h1.913c.851 0 1.003-.273 1.125-.727a8.66 8.66 0 0 1 1.263-3.055.956.956 0 0 0-.12-1.205l-1.038-1.038a.934.934 0 0 1 0-1.353.934.934 0 0 1 1.353 0l1.038 1.039a.953.953 0 0 0 1.202.122 8.646 8.646 0 0 1 3.055-1.258c.769-.176.732-.777.732-1.133V48.37c0-.547.41-.956.957-.956zm0 7.651a4.796 4.796 0 0 0-4.783 4.783 4.796 4.796 0 0 0 4.783 4.782 4.796 4.796 0 0 0 4.782-4.782 4.796 4.796 0 0 0-4.782-4.783zm0 1.913a2.856 2.856 0 0 1 2.87 2.87 2.856 2.856 0 0 1-2.87 2.87 2.856 2.856 0 0 1-2.87-2.87 2.856 2.856 0 0 1 2.87-2.87zM39.717 32.11c-4.744 0-8.608 3.864-8.608 8.608 0 4.744 3.864 8.609 8.608 8.609 4.744 0 8.609-3.865 8.609-8.609s-3.865-8.608-8.609-8.608zm0 1.913a6.678 6.678 0 0 1 6.696 6.695 6.678 6.678 0 0 1-6.696 6.696 6.678 6.678 0 0 1-6.695-6.696 6.678 6.678 0 0 1 6.695-6.695zm-1.913-17.217a2.885 2.885 0 0 0-2.87 2.87v3.653c-1.459.402-2.857.976-4.173 1.722l-3.587-3.583a2.887 2.887 0 0 0-4.061 0l-2.705 2.703a2.887 2.887 0 0 0 0 4.056l3.61 3.61a18.194 18.194 0 0 0-1.697 4.099h-3.646a2.885 2.885 0 0 0-2.87 2.87v3.825a2.885 2.885 0 0 0 2.87 2.87h3.65c.395 1.448.97 2.83 1.708 4.14l-3.623 3.62a2.887 2.887 0 0 0 0 4.062l2.705 2.705a2.887 2.887 0 0 0 4.06 0l3.63-3.635c1.3.746 2.686 1.32 4.132 1.718v3.65a2.885 2.885 0 0 0 2.87 2.87h3.825c1.27 0 1.263-1.914 0-1.914h-3.826a.933.933 0 0 1-.956-.956v-4.274a.96.96 0 0 0-.746-.937 16.204 16.204 0 0 1-5.031-2.085.955.955 0 0 0-1.18.13l-.012.019-.006.008-4.052 4.055a.947.947 0 0 1-1.358 0l-2.703-2.707a.947.947 0 0 1 0-1.358l4.061-4.055.008-.008.004-.006a.957.957 0 0 0 .128-1.178 16.228 16.228 0 0 1-2.076-5.031.956.956 0 0 0-.937-.746h-4.275a.933.933 0 0 1-.957-.957v-3.826c0-.547.41-.956.957-.956h4.273a.96.96 0 0 0 .937-.746 16.188 16.188 0 0 1 2.06-4.993.955.955 0 0 0-.133-1.186l-4.052-4.046a.934.934 0 0 1 0-1.353l2.705-2.705a.94.94 0 0 1 1.358 0l4.023 4.025a.957.957 0 0 0 1.186.134 16.291 16.291 0 0 1 5.064-2.09.96.96 0 0 0 .746-.938v-4.275c0-.548.41-.957.957-.957h3.825c.548 0 .957.41.957.957v4.273a.96.96 0 0 0 .746.937c1.78.406 3.476 1.11 5.023 2.084a.963.963 0 0 0 1.186-.134l4.018-4.017a.934.934 0 0 1 1.352 0l2.705 2.705a.934.934 0 0 1 0 1.352l-3.998 4.01a.957.957 0 0 0-.134 1.186 16.195 16.195 0 0 1 2.066 5.03c.102.437.49.747.937.747h4.278c.547 0 .956.41.956.956v3.826c0 1.278 1.913 1.247 1.913 0v-3.826a2.885 2.885 0 0 0-2.87-2.87h-3.65a18.251 18.251 0 0 0-1.702-4.139l3.562-3.568a2.88 2.88 0 0 0 0-4.055l-2.705-2.707a2.88 2.88 0 0 0-4.055 0l-3.577 3.577a17.796 17.796 0 0 0-4.132-1.717v-3.65a2.885 2.885 0 0 0-2.87-2.87h-3.826z"/>
    </defs>
    <g fill="none" fill-rule="evenodd" transform="translate(-15 -16)">
        <use fill="#DB2D1E" fill-rule="nonzero" xlink:href="#b"/>
    </g>
</svg>
